<?xml version="1.0" encoding="UTF-8" standalone="no"?>
<!DOCTYPE svg PUBLIC "-//W3C//DTD SVG 1.1//EN" "http://www.w3.org/Graphics/SVG/1.1/DTD/svg11.dtd">
<svg width="100%" height="100%" viewBox="0 0 389 366" version="1.1" xmlns="http://www.w3.org/2000/svg" xmlns:xlink="http://www.w3.org/1999/xlink" xml:space="preserve" xmlns:serif="http://www.serif.com/" style="fill-rule:evenodd;clip-rule:evenodd;stroke-linecap:round;stroke-linejoin:round;stroke-miterlimit:1.5;">
    <g transform="matrix(1,0,0,1,-640.274,-1141.56)">
        <g transform="matrix(-0.186378,0.834099,-0.81803,-0.182788,1642.77,646.802)">
            <path d="M996.908,783.071C997.536,790.426 997.435,797.827 996.647,805.171L977.807,807.289C976.752,814.305 974.95,821.182 972.433,827.798L987.714,839.266C984.379,847.021 980.224,854.38 975.324,861.211L957.972,853.412C953.629,858.949 948.706,863.983 943.291,868.426L950.918,886.171C944.238,891.182 937.042,895.43 929.459,898.841L918.245,883.214C911.776,885.788 905.051,887.631 898.19,888.709L896.119,907.977C887.884,908.901 879.575,908.901 871.34,907.977L869.269,888.709C862.408,887.631 855.683,885.788 849.214,883.214L838,898.841C830.416,895.43 823.22,891.182 816.54,886.171L824.167,868.426C818.753,863.983 813.83,858.949 809.486,853.412L792.134,861.211C787.234,854.38 783.079,847.021 779.744,839.266L795.025,827.798C792.508,821.182 790.706,814.305 789.652,807.289L770.811,805.171C769.907,796.749 769.907,788.252 770.811,779.83L789.652,777.712C790.706,770.696 792.508,763.819 795.025,757.203L779.744,745.735C783.079,737.98 787.234,730.621 792.134,723.79L809.486,731.589C813.83,726.052 818.753,721.018 824.167,716.575L816.54,698.83C823.22,693.819 830.416,689.571 838,686.16L849.214,701.787C855.683,699.213 862.408,697.37 869.269,696.292L871.34,677.024C879.575,676.1 887.884,676.1 896.119,677.024L898.19,696.292C905.051,697.37 911.776,699.213 918.245,701.787L929.459,686.16C937.042,689.571 944.238,693.819 950.918,698.83L943.291,716.575C948.706,721.018 953.629,726.052 957.972,731.589L975.324,723.79C979.37,729.43 982.908,735.431 985.864,741.733L912.389,758.87C904.741,751.991 894.705,747.84 883.729,747.84C859.627,747.84 840.058,767.852 840.058,792.501C840.058,817.149 859.627,837.161 883.729,837.161C905.53,837.161 923.621,820.789 926.823,799.417L996.908,783.071Z" style="fill:rgb(89,147,237);stroke:black;stroke-width:2.36px;"/>
        </g>
        <g transform="matrix(-0.827433,-0.214043,0.215402,-0.832689,1492.33,2253.2)">
            <path d="M985.42,844.227C982.549,850.177 979.166,855.856 975.324,861.211L959.756,854.875C955.308,860.545 950.266,865.701 944.722,870.25L950.918,886.171C944.238,891.182 937.042,895.43 929.459,898.841L919.074,885.393C912.449,888.029 905.563,889.916 898.537,891.02L896.119,907.977C887.884,908.901 879.575,908.901 871.34,907.977L868.921,891.02C861.895,889.916 855.009,888.029 848.384,885.393L838,898.841C830.416,895.43 823.22,891.182 816.54,886.171L822.736,870.25C817.192,865.701 812.15,860.545 807.702,854.875L792.134,861.211C787.234,854.38 783.079,847.021 779.744,839.266L792.894,828.646C790.317,821.871 788.472,814.829 787.392,807.644L770.811,805.171C769.907,796.749 769.907,788.252 770.811,779.83L787.392,777.357C788.472,770.172 790.317,763.13 792.894,756.355L779.744,745.735C783.079,737.98 787.234,730.621 792.134,723.79L807.702,730.126C812.15,724.456 817.192,719.3 822.736,714.751L816.54,698.83C823.22,693.819 830.416,689.571 838,686.16L848.384,699.608C855.009,696.972 861.895,695.085 868.921,693.981L871.34,677.024C879.575,676.1 887.884,676.1 896.119,677.024L898.537,693.981C905.563,695.085 912.449,696.972 919.074,699.608L929.459,686.16C937.042,689.571 944.238,693.819 950.918,698.83L944.722,714.751C950.266,719.3 955.308,724.456 959.756,730.126L975.324,723.79C980.224,730.621 984.379,737.98 987.714,745.735L974.564,756.355C977.141,763.13 978.987,770.172 980.067,777.357L996.647,779.83C997.507,787.839 997.549,795.917 996.747,803.93L925.009,778.035C919.162,760.469 902.876,747.84 883.729,747.84C859.627,747.84 840.058,767.852 840.058,792.501C840.058,817.149 859.627,837.161 883.729,837.161C897.711,837.161 910.167,830.427 918.128,819.937L985.42,844.227Z" style="fill:rgb(237,234,79);stroke:black;stroke-width:2.33px;"/>
        </g>
        <g transform="matrix(0.58308,-0.624882,0.612843,0.571847,-263.108,1508.3)">
            <path d="M987.105,840.583C983.9,847.863 979.944,854.772 975.324,861.211L960.127,855.18C955.658,860.878 950.592,866.058 945.02,870.63L950.918,886.171C944.238,891.182 937.042,895.43 929.459,898.841L919.247,885.847C912.59,888.496 905.67,890.392 898.609,891.502L896.119,907.977C887.884,908.901 879.575,908.901 871.34,907.977L868.849,891.502C861.789,890.392 854.869,888.496 848.212,885.847L838,898.841C830.416,895.43 823.22,891.182 816.54,886.171L822.438,870.63C816.867,866.058 811.801,860.878 807.331,855.18L792.134,861.211C787.234,854.38 783.079,847.021 779.744,839.266L792.451,828.823C789.86,822.015 788.006,814.938 786.921,807.718L770.811,805.171C769.907,796.749 769.907,788.252 770.811,779.83L786.921,777.283C788.006,770.063 789.86,762.986 792.451,756.179L779.744,745.735C783.079,737.98 787.234,730.621 792.134,723.79L807.331,729.821C811.801,724.123 816.867,718.943 822.438,714.372L816.54,698.83C823.22,693.819 830.416,689.571 838,686.16L848.212,699.154C854.869,696.505 861.789,694.609 868.849,693.499L871.34,677.024C879.575,676.1 887.884,676.1 896.119,677.024L898.609,693.499C905.67,694.609 912.59,696.505 919.247,699.154L929.459,686.16C937.042,689.571 944.238,693.819 950.918,698.83L945.02,714.372C950.592,718.943 955.658,724.123 960.127,729.821L975.324,723.79C980.224,730.621 984.379,737.98 987.714,745.735L975.008,756.179C977.598,762.986 979.452,770.063 980.537,777.283L996.647,779.83C997.328,786.178 997.496,792.57 997.148,798.939L926.854,785.793C923.737,764.317 905.6,747.84 883.729,747.84C859.627,747.84 840.058,767.852 840.058,792.501C840.058,817.149 859.627,837.161 883.729,837.161C894.498,837.161 904.362,833.166 911.961,826.53L987.105,840.583Z" style="fill:rgb(237,89,99);stroke:black;stroke-width:2.36px;"/>
        </g>
    </g>
</svg>
